<svg xmlns="http://www.w3.org/2000/svg" xmlns:xlink="http://www.w3.org/1999/xlink" xmlns:lucid="lucid" width="466" height="173"><g transform="translate(-380 553)" lucid:page-tab-id="EN8Z4Yltz-~_"><path d="M520-470c0 27.6-22.4 50-50 50s-50-22.4-50-50 22.4-50 50-50 50 22.4 50 50z" stroke="#5e5e5e" stroke-width="3" fill="#de5f85"/><use xlink:href="#a" transform="matrix(1,0,0,1,425,-515) translate(37.592592592592595 48.71527777777778)"/><path d="M820-470c0 27.6-22.4 50-50 50s-50-22.4-50-50 22.4-50 50-50 50 22.4 50 50z" stroke="#5e5e5e" stroke-width="3" fill="#de5f85"/><use xlink:href="#b" transform="matrix(1,0,0,1,725,-515) translate(37.592592592592595 48.71527777777778)"/><path d="M525-470h190" stroke="#5e5e5e" stroke-width="7" fill="none"/><path d="M525.1-466.5h-3.77l.17-3.5-.12-3.5h3.7zM718.5-470l.12 3.5h-3.7v-7h3.75z" fill="#5e5e5e"/><defs><path fill="#333" d="M205 0l-28-72H64L36 0H1l101-248h38L239 0h-34zm-38-99l-47-123c-12 45-31 82-46 123h93" id="c"/><use transform="matrix(0.06172839506172839,0,0,0.06172839506172839,0,0)" xlink:href="#c" id="a"/><path fill="#333" d="M160-131c35 5 61 23 61 61C221 17 115-2 30 0v-248c76 3 177-17 177 60 0 33-19 50-47 57zm-97-11c50-1 110 9 110-42 0-47-63-36-110-37v79zm0 115c55-2 124 14 124-45 0-56-70-42-124-44v89" id="d"/><use transform="matrix(0.06172839506172839,0,0,0.06172839506172839,0,0)" xlink:href="#d" id="b"/></defs></g></svg>