<svg xmlns="http://www.w3.org/2000/svg" xmlns:xlink="http://www.w3.org/1999/xlink" xmlns:lucid="lucid" width="426" height="343"><g transform="translate(-300 -377)" lucid:page-tab-id="0_0"><path d="M700 447.16c0 16.57-13.43 30-30 30s-30-13.43-30-30 13.43-30 30-30 30 13.43 30 30z" stroke="#5e5e5e" stroke-width="3" fill="#de5f85"/><use xlink:href="#a" transform="matrix(1,0,0,1,645,422.16329311758784) translate(18.82716049382716 30.27777777777778)"/><path d="M400 650c0 16.57-13.43 30-30 30s-30-13.43-30-30 13.43-30 30-30 30 13.43 30 30z" stroke="#5e5e5e" stroke-width="3" fill="#de5f85"/><use xlink:href="#b" transform="matrix(1,0,0,1,345,625) translate(18.82716049382716 30.27777777777778)"/><path d="M400 450c0 16.57-13.43 30-30 30s-30-13.43-30-30 13.43-30 30-30 30 13.43 30 30z" stroke="#5e5e5e" stroke-width="3" fill="#de5f85"/><use xlink:href="#c" transform="matrix(1,0,0,1,345,425) translate(18.82716049382716 30.27777777777778)"/><path d="M700 650c0 16.57-13.43 30-30 30s-30-13.43-30-30 13.43-30 30-30 30 13.43 30 30z" stroke="#5e5e5e" stroke-width="3" fill="#de5f85"/><use xlink:href="#d" transform="matrix(1,0,0,1,645,625) translate(18.82716049382716 30.27777777777778)"/><path d="M402.5 450h217.66" stroke="#5e5e5e" stroke-width="2" fill="none"/><path d="M402.53 451h-1.1l.07-.96-.03-1.04h1.06z" fill="#5e5e5e"/><path d="M635.43 450l-14.27 4.64v-9.28z" stroke="#5e5e5e" stroke-width="2" fill="#5e5e5e"/><path d="M370 482.5V600" stroke="#5e5e5e" stroke-width="2" fill="none"/><path d="M369.96 481.5l1.04-.03v1.06h-2v-1.1z" fill="#5e5e5e"/><path d="M370 615.26L365.36 601h9.28z" stroke="#5e5e5e" stroke-width="2" fill="#5e5e5e"/><path d="M637.5 650H420" stroke="#5e5e5e" stroke-width="2" fill="none"/><path d="M638.5 649.96l.03 1.04h-1.06v-2h1.1z" fill="#5e5e5e"/><path d="M404.74 650l14.26-4.64v9.28z" stroke="#5e5e5e" stroke-width="2" fill="#5e5e5e"/><path d="M649.87 624.87V555.8c0-3.33-2.68-6-6-6h-247.2c-3.3 0-6-2.7-6-6v-51.6" stroke="#5e5e5e" stroke-width="2" fill="none"/><path d="M650.87 625.1l-2 1.54v-1.8h2z" fill="#5e5e5e"/><path d="M390.68 476.94l4.64 14.27h-9.28z" stroke="#5e5e5e" stroke-width="2" fill="#5e5e5e"/><path d="M670 479.66V600" stroke="#5e5e5e" stroke-width="2" fill="none"/><path d="M669.96 478.67l1.04-.04v1.06h-2v-1.1z" fill="#5e5e5e"/><path d="M670 615.26L665.36 601h9.28z" stroke="#5e5e5e" stroke-width="2" fill="#5e5e5e"/><defs><path fill="#333" d="M126-127c33 6 58 20 58 59 0 88-139 92-164 29-3-8-5-16-6-25l32-3c6 27 21 44 54 44 32 0 52-15 52-46 0-38-36-46-79-43v-28c39 1 72-4 72-42 0-27-17-43-46-43-28 0-47 15-49 41l-32-3c6-42 35-63 81-64 48-1 79 21 79 65 0 36-21 52-52 59" id="e"/><use transform="matrix(0.06172839506172839,0,0,0.06172839506172839,0,0)" xlink:href="#e" id="a"/><path fill="#333" d="M27 0v-27h64v-190l-56 39v-29l58-41h29v221h61V0H27" id="f"/><use transform="matrix(0.06172839506172839,0,0,0.06172839506172839,0,0)" xlink:href="#f" id="b"/><path fill="#333" d="M101-251c68 0 85 55 85 127S166 4 100 4C33 4 14-52 14-124c0-73 17-127 87-127zm-1 229c47 0 54-49 54-102s-4-102-53-102c-51 0-55 48-55 102 0 53 5 102 54 102" id="g"/><use transform="matrix(0.06172839506172839,0,0,0.06172839506172839,0,0)" xlink:href="#g" id="c"/><path fill="#333" d="M101-251c82-7 93 87 43 132L82-64C71-53 59-42 53-27h129V0H18c2-99 128-94 128-182 0-28-16-43-45-43s-46 15-49 41l-32-3c6-41 34-60 81-64" id="h"/><use transform="matrix(0.06172839506172839,0,0,0.06172839506172839,0,0)" xlink:href="#h" id="d"/></defs></g></svg>